<mxfile host="Electron" agent="Mozilla/5.0 (X11; Linux x86_64) AppleWebKit/537.36 (KHTML, like Gecko) draw.io/24.7.5 Chrome/126.0.6478.183 Electron/31.3.0 Safari/537.36" version="24.7.5">
  <diagram name="Page-1" id="Q47yLwpexjaBqS4PnpKp">
    <mxGraphModel dx="6694" dy="4802" grid="1" gridSize="10" guides="1" tooltips="1" connect="1" arrows="1" fold="1" page="1" pageScale="1" pageWidth="827" pageHeight="1169" math="0" shadow="0">
      <root>
        <mxCell id="0" />
        <mxCell id="1" parent="0" />
        <mxCell id="kTg9N_V6cxzvnZSryNli-79" value="" style="rounded=1;whiteSpace=wrap;html=1;arcSize=8;" parent="1" vertex="1">
          <mxGeometry x="110" y="-32.5" width="600" height="595" as="geometry" />
        </mxCell>
        <mxCell id="kTg9N_V6cxzvnZSryNli-80" value="32 Bit Adder Subtractor" style="text;html=1;align=center;verticalAlign=middle;whiteSpace=wrap;rounded=0;" parent="1" vertex="1">
          <mxGeometry x="295" y="-75" width="160" height="30" as="geometry" />
        </mxCell>
        <mxCell id="kTg9N_V6cxzvnZSryNli-84" value="" style="shape=offPageConnector;whiteSpace=wrap;html=1;rotation=-90;size=0.2692307692307692;" parent="1" vertex="1">
          <mxGeometry x="-30" y="410" width="30" height="65" as="geometry" />
        </mxCell>
        <mxCell id="kTg9N_V6cxzvnZSryNli-1" value="32 bit parallel Adder" style="rounded=1;whiteSpace=wrap;html=1;" parent="1" vertex="1">
          <mxGeometry x="350" y="10" width="190" height="460" as="geometry" />
        </mxCell>
        <mxCell id="kTg9N_V6cxzvnZSryNli-2" value="" style="endArrow=none;html=1;rounded=0;entryX=0.995;entryY=0.05;entryDx=0;entryDy=0;entryPerimeter=0;" parent="1" edge="1">
          <mxGeometry width="50" height="50" relative="1" as="geometry">
            <mxPoint x="570.95" y="129.91" as="sourcePoint" />
            <mxPoint x="540.0000000000001" y="129.90999999999994" as="targetPoint" />
          </mxGeometry>
        </mxCell>
        <mxCell id="kTg9N_V6cxzvnZSryNli-3" value="" style="endArrow=none;html=1;rounded=0;entryX=0.995;entryY=0.05;entryDx=0;entryDy=0;entryPerimeter=0;" parent="1" edge="1">
          <mxGeometry width="50" height="50" relative="1" as="geometry">
            <mxPoint x="571" y="139.91" as="sourcePoint" />
            <mxPoint x="540" y="139.91" as="targetPoint" />
          </mxGeometry>
        </mxCell>
        <mxCell id="kTg9N_V6cxzvnZSryNli-4" value="" style="endArrow=none;html=1;rounded=0;entryX=0.995;entryY=0.05;entryDx=0;entryDy=0;entryPerimeter=0;" parent="1" edge="1">
          <mxGeometry width="50" height="50" relative="1" as="geometry">
            <mxPoint x="571" y="149.91" as="sourcePoint" />
            <mxPoint x="540" y="149.91" as="targetPoint" />
          </mxGeometry>
        </mxCell>
        <mxCell id="kTg9N_V6cxzvnZSryNli-5" value="" style="endArrow=none;html=1;rounded=0;entryX=0.995;entryY=0.05;entryDx=0;entryDy=0;entryPerimeter=0;" parent="1" edge="1">
          <mxGeometry width="50" height="50" relative="1" as="geometry">
            <mxPoint x="571" y="159.91" as="sourcePoint" />
            <mxPoint x="540" y="159.91" as="targetPoint" />
          </mxGeometry>
        </mxCell>
        <mxCell id="kTg9N_V6cxzvnZSryNli-6" value="" style="endArrow=none;html=1;rounded=0;entryX=0.995;entryY=0.05;entryDx=0;entryDy=0;entryPerimeter=0;" parent="1" edge="1">
          <mxGeometry width="50" height="50" relative="1" as="geometry">
            <mxPoint x="571" y="169.91" as="sourcePoint" />
            <mxPoint x="540" y="169.91" as="targetPoint" />
          </mxGeometry>
        </mxCell>
        <mxCell id="kTg9N_V6cxzvnZSryNli-7" value="" style="endArrow=none;html=1;rounded=0;entryX=0.995;entryY=0.05;entryDx=0;entryDy=0;entryPerimeter=0;" parent="1" edge="1">
          <mxGeometry width="50" height="50" relative="1" as="geometry">
            <mxPoint x="571" y="179.92000000000002" as="sourcePoint" />
            <mxPoint x="540" y="179.92000000000002" as="targetPoint" />
          </mxGeometry>
        </mxCell>
        <mxCell id="kTg9N_V6cxzvnZSryNli-8" value="" style="endArrow=none;html=1;rounded=0;entryX=0.995;entryY=0.05;entryDx=0;entryDy=0;entryPerimeter=0;" parent="1" edge="1">
          <mxGeometry width="50" height="50" relative="1" as="geometry">
            <mxPoint x="571" y="189.92000000000002" as="sourcePoint" />
            <mxPoint x="540" y="189.92000000000002" as="targetPoint" />
          </mxGeometry>
        </mxCell>
        <mxCell id="kTg9N_V6cxzvnZSryNli-9" value="" style="endArrow=none;html=1;rounded=0;entryX=0.995;entryY=0.05;entryDx=0;entryDy=0;entryPerimeter=0;" parent="1" edge="1">
          <mxGeometry width="50" height="50" relative="1" as="geometry">
            <mxPoint x="571" y="199.92000000000002" as="sourcePoint" />
            <mxPoint x="540" y="199.92000000000002" as="targetPoint" />
          </mxGeometry>
        </mxCell>
        <mxCell id="kTg9N_V6cxzvnZSryNli-10" value="" style="endArrow=none;html=1;rounded=0;entryX=0.995;entryY=0.05;entryDx=0;entryDy=0;entryPerimeter=0;" parent="1" edge="1">
          <mxGeometry width="50" height="50" relative="1" as="geometry">
            <mxPoint x="571" y="209.92000000000002" as="sourcePoint" />
            <mxPoint x="540" y="209.92000000000002" as="targetPoint" />
          </mxGeometry>
        </mxCell>
        <mxCell id="kTg9N_V6cxzvnZSryNli-11" value="" style="endArrow=none;html=1;rounded=0;entryX=0.995;entryY=0.05;entryDx=0;entryDy=0;entryPerimeter=0;" parent="1" edge="1">
          <mxGeometry width="50" height="50" relative="1" as="geometry">
            <mxPoint x="571" y="219.92000000000002" as="sourcePoint" />
            <mxPoint x="540" y="219.92000000000002" as="targetPoint" />
          </mxGeometry>
        </mxCell>
        <mxCell id="kTg9N_V6cxzvnZSryNli-12" value="" style="endArrow=none;html=1;rounded=0;entryX=0.995;entryY=0.05;entryDx=0;entryDy=0;entryPerimeter=0;" parent="1" edge="1">
          <mxGeometry width="50" height="50" relative="1" as="geometry">
            <mxPoint x="571" y="229.92000000000002" as="sourcePoint" />
            <mxPoint x="540" y="229.92000000000002" as="targetPoint" />
          </mxGeometry>
        </mxCell>
        <mxCell id="kTg9N_V6cxzvnZSryNli-13" value="" style="endArrow=none;html=1;rounded=0;entryX=0.995;entryY=0.05;entryDx=0;entryDy=0;entryPerimeter=0;" parent="1" edge="1">
          <mxGeometry width="50" height="50" relative="1" as="geometry">
            <mxPoint x="571" y="239.92000000000002" as="sourcePoint" />
            <mxPoint x="540" y="239.92000000000002" as="targetPoint" />
          </mxGeometry>
        </mxCell>
        <mxCell id="kTg9N_V6cxzvnZSryNli-14" value="" style="endArrow=none;html=1;rounded=0;entryX=0.995;entryY=0.05;entryDx=0;entryDy=0;entryPerimeter=0;" parent="1" edge="1">
          <mxGeometry width="50" height="50" relative="1" as="geometry">
            <mxPoint x="571" y="249.92000000000002" as="sourcePoint" />
            <mxPoint x="540" y="249.92000000000002" as="targetPoint" />
          </mxGeometry>
        </mxCell>
        <mxCell id="kTg9N_V6cxzvnZSryNli-15" value="" style="endArrow=none;html=1;rounded=0;entryX=0.995;entryY=0.05;entryDx=0;entryDy=0;entryPerimeter=0;" parent="1" edge="1">
          <mxGeometry width="50" height="50" relative="1" as="geometry">
            <mxPoint x="571" y="259.92" as="sourcePoint" />
            <mxPoint x="540" y="259.92" as="targetPoint" />
          </mxGeometry>
        </mxCell>
        <mxCell id="kTg9N_V6cxzvnZSryNli-16" value="" style="endArrow=none;html=1;rounded=0;entryX=0.995;entryY=0.05;entryDx=0;entryDy=0;entryPerimeter=0;" parent="1" edge="1">
          <mxGeometry width="50" height="50" relative="1" as="geometry">
            <mxPoint x="571" y="269.92" as="sourcePoint" />
            <mxPoint x="540" y="269.92" as="targetPoint" />
          </mxGeometry>
        </mxCell>
        <mxCell id="kTg9N_V6cxzvnZSryNli-17" value="" style="endArrow=none;html=1;rounded=0;entryX=0.995;entryY=0.05;entryDx=0;entryDy=0;entryPerimeter=0;" parent="1" edge="1">
          <mxGeometry width="50" height="50" relative="1" as="geometry">
            <mxPoint x="571" y="279.92" as="sourcePoint" />
            <mxPoint x="540" y="279.92" as="targetPoint" />
          </mxGeometry>
        </mxCell>
        <mxCell id="kTg9N_V6cxzvnZSryNli-18" value="" style="endArrow=none;html=1;rounded=0;entryX=0.995;entryY=0.05;entryDx=0;entryDy=0;entryPerimeter=0;" parent="1" edge="1">
          <mxGeometry width="50" height="50" relative="1" as="geometry">
            <mxPoint x="571" y="289.92" as="sourcePoint" />
            <mxPoint x="540" y="289.92" as="targetPoint" />
          </mxGeometry>
        </mxCell>
        <mxCell id="kTg9N_V6cxzvnZSryNli-19" value="" style="endArrow=none;html=1;rounded=0;entryX=0.995;entryY=0.05;entryDx=0;entryDy=0;entryPerimeter=0;" parent="1" edge="1">
          <mxGeometry width="50" height="50" relative="1" as="geometry">
            <mxPoint x="571" y="299.92" as="sourcePoint" />
            <mxPoint x="540" y="299.92" as="targetPoint" />
          </mxGeometry>
        </mxCell>
        <mxCell id="kTg9N_V6cxzvnZSryNli-20" value="" style="endArrow=none;html=1;rounded=0;entryX=0.995;entryY=0.05;entryDx=0;entryDy=0;entryPerimeter=0;" parent="1" edge="1">
          <mxGeometry width="50" height="50" relative="1" as="geometry">
            <mxPoint x="571" y="309.92" as="sourcePoint" />
            <mxPoint x="540" y="309.92" as="targetPoint" />
          </mxGeometry>
        </mxCell>
        <mxCell id="kTg9N_V6cxzvnZSryNli-21" value="" style="endArrow=none;html=1;rounded=0;entryX=0.995;entryY=0.05;entryDx=0;entryDy=0;entryPerimeter=0;" parent="1" edge="1">
          <mxGeometry width="50" height="50" relative="1" as="geometry">
            <mxPoint x="571" y="319.92" as="sourcePoint" />
            <mxPoint x="540" y="319.92" as="targetPoint" />
          </mxGeometry>
        </mxCell>
        <mxCell id="kTg9N_V6cxzvnZSryNli-22" value="" style="endArrow=none;html=1;rounded=0;entryX=0.995;entryY=0.05;entryDx=0;entryDy=0;entryPerimeter=0;" parent="1" edge="1">
          <mxGeometry width="50" height="50" relative="1" as="geometry">
            <mxPoint x="571" y="329.92" as="sourcePoint" />
            <mxPoint x="540" y="329.92" as="targetPoint" />
          </mxGeometry>
        </mxCell>
        <mxCell id="kTg9N_V6cxzvnZSryNli-23" value="" style="endArrow=none;html=1;rounded=0;entryX=0.995;entryY=0.05;entryDx=0;entryDy=0;entryPerimeter=0;" parent="1" edge="1">
          <mxGeometry width="50" height="50" relative="1" as="geometry">
            <mxPoint x="571" y="339.92" as="sourcePoint" />
            <mxPoint x="540" y="339.92" as="targetPoint" />
          </mxGeometry>
        </mxCell>
        <mxCell id="kTg9N_V6cxzvnZSryNli-24" value="" style="endArrow=none;html=1;rounded=0;entryX=0.995;entryY=0.05;entryDx=0;entryDy=0;entryPerimeter=0;" parent="1" edge="1">
          <mxGeometry width="50" height="50" relative="1" as="geometry">
            <mxPoint x="571" y="349.92" as="sourcePoint" />
            <mxPoint x="540" y="349.92" as="targetPoint" />
          </mxGeometry>
        </mxCell>
        <mxCell id="kTg9N_V6cxzvnZSryNli-25" value="" style="endArrow=none;html=1;rounded=0;entryX=0.995;entryY=0.05;entryDx=0;entryDy=0;entryPerimeter=0;" parent="1" edge="1">
          <mxGeometry width="50" height="50" relative="1" as="geometry">
            <mxPoint x="571" y="359.92" as="sourcePoint" />
            <mxPoint x="540" y="359.92" as="targetPoint" />
          </mxGeometry>
        </mxCell>
        <mxCell id="kTg9N_V6cxzvnZSryNli-26" value="" style="endArrow=none;html=1;rounded=0;entryX=0.995;entryY=0.05;entryDx=0;entryDy=0;entryPerimeter=0;" parent="1" edge="1">
          <mxGeometry width="50" height="50" relative="1" as="geometry">
            <mxPoint x="571" y="369.94" as="sourcePoint" />
            <mxPoint x="540" y="369.94" as="targetPoint" />
          </mxGeometry>
        </mxCell>
        <mxCell id="kTg9N_V6cxzvnZSryNli-27" value="" style="endArrow=none;html=1;rounded=0;entryX=0.995;entryY=0.05;entryDx=0;entryDy=0;entryPerimeter=0;" parent="1" edge="1">
          <mxGeometry width="50" height="50" relative="1" as="geometry">
            <mxPoint x="571" y="379.94" as="sourcePoint" />
            <mxPoint x="540" y="379.94" as="targetPoint" />
          </mxGeometry>
        </mxCell>
        <mxCell id="kTg9N_V6cxzvnZSryNli-28" value="" style="endArrow=none;html=1;rounded=0;entryX=0.995;entryY=0.05;entryDx=0;entryDy=0;entryPerimeter=0;" parent="1" edge="1">
          <mxGeometry width="50" height="50" relative="1" as="geometry">
            <mxPoint x="571" y="389.8" as="sourcePoint" />
            <mxPoint x="540" y="389.8" as="targetPoint" />
          </mxGeometry>
        </mxCell>
        <mxCell id="kTg9N_V6cxzvnZSryNli-29" value="" style="endArrow=none;html=1;rounded=0;entryX=0.995;entryY=0.05;entryDx=0;entryDy=0;entryPerimeter=0;" parent="1" edge="1">
          <mxGeometry width="50" height="50" relative="1" as="geometry">
            <mxPoint x="571" y="399.8" as="sourcePoint" />
            <mxPoint x="540" y="399.8" as="targetPoint" />
          </mxGeometry>
        </mxCell>
        <mxCell id="kTg9N_V6cxzvnZSryNli-30" value="" style="endArrow=none;html=1;rounded=0;entryX=0.995;entryY=0.05;entryDx=0;entryDy=0;entryPerimeter=0;" parent="1" edge="1">
          <mxGeometry width="50" height="50" relative="1" as="geometry">
            <mxPoint x="571" y="409.8" as="sourcePoint" />
            <mxPoint x="540" y="409.8" as="targetPoint" />
          </mxGeometry>
        </mxCell>
        <mxCell id="kTg9N_V6cxzvnZSryNli-31" value="" style="endArrow=none;html=1;rounded=0;entryX=0.995;entryY=0.05;entryDx=0;entryDy=0;entryPerimeter=0;" parent="1" edge="1">
          <mxGeometry width="50" height="50" relative="1" as="geometry">
            <mxPoint x="571" y="419.94" as="sourcePoint" />
            <mxPoint x="540" y="419.94" as="targetPoint" />
          </mxGeometry>
        </mxCell>
        <mxCell id="kTg9N_V6cxzvnZSryNli-32" value="" style="endArrow=none;html=1;rounded=0;entryX=0.995;entryY=0.05;entryDx=0;entryDy=0;entryPerimeter=0;" parent="1" edge="1">
          <mxGeometry width="50" height="50" relative="1" as="geometry">
            <mxPoint x="571" y="429.94" as="sourcePoint" />
            <mxPoint x="540" y="429.94" as="targetPoint" />
          </mxGeometry>
        </mxCell>
        <mxCell id="kTg9N_V6cxzvnZSryNli-33" value="" style="endArrow=none;html=1;rounded=0;entryX=0.995;entryY=0.05;entryDx=0;entryDy=0;entryPerimeter=0;" parent="1" edge="1">
          <mxGeometry width="50" height="50" relative="1" as="geometry">
            <mxPoint x="571" y="439.94" as="sourcePoint" />
            <mxPoint x="540" y="439.94" as="targetPoint" />
          </mxGeometry>
        </mxCell>
        <mxCell id="kTg9N_V6cxzvnZSryNli-110" style="edgeStyle=orthogonalEdgeStyle;rounded=0;orthogonalLoop=1;jettySize=auto;html=1;exitX=0;exitY=0.75;exitDx=0;exitDy=0;exitPerimeter=0;endArrow=none;endFill=0;" parent="1" source="kTg9N_V6cxzvnZSryNli-35" edge="1">
          <mxGeometry relative="1" as="geometry">
            <mxPoint x="260" y="402.42857142857133" as="targetPoint" />
          </mxGeometry>
        </mxCell>
        <mxCell id="kTg9N_V6cxzvnZSryNli-111" style="edgeStyle=orthogonalEdgeStyle;rounded=0;orthogonalLoop=1;jettySize=auto;html=1;exitX=0;exitY=0.25;exitDx=0;exitDy=0;exitPerimeter=0;endArrow=none;endFill=0;" parent="1" source="kTg9N_V6cxzvnZSryNli-35" edge="1">
          <mxGeometry relative="1" as="geometry">
            <mxPoint x="190" y="387.8333333333335" as="targetPoint" />
          </mxGeometry>
        </mxCell>
        <mxCell id="kTg9N_V6cxzvnZSryNli-35" value="" style="verticalLabelPosition=bottom;shadow=0;dashed=0;align=center;html=1;verticalAlign=top;shape=mxgraph.electrical.logic_gates.logic_gate;operation=xor;" parent="1" vertex="1">
          <mxGeometry x="300" y="380" width="50" height="30" as="geometry" />
        </mxCell>
        <mxCell id="kTg9N_V6cxzvnZSryNli-109" style="edgeStyle=orthogonalEdgeStyle;rounded=0;orthogonalLoop=1;jettySize=auto;html=1;exitX=0;exitY=0.75;exitDx=0;exitDy=0;exitPerimeter=0;endArrow=none;endFill=0;" parent="1" source="kTg9N_V6cxzvnZSryNli-36" edge="1">
          <mxGeometry relative="1" as="geometry">
            <mxPoint x="260" y="362.42857142857133" as="targetPoint" />
          </mxGeometry>
        </mxCell>
        <mxCell id="kTg9N_V6cxzvnZSryNli-112" style="edgeStyle=orthogonalEdgeStyle;rounded=0;orthogonalLoop=1;jettySize=auto;html=1;exitX=0;exitY=0.25;exitDx=0;exitDy=0;exitPerimeter=0;endArrow=none;endFill=0;" parent="1" source="kTg9N_V6cxzvnZSryNli-36" edge="1">
          <mxGeometry relative="1" as="geometry">
            <mxPoint x="190" y="347.8333333333335" as="targetPoint" />
          </mxGeometry>
        </mxCell>
        <mxCell id="kTg9N_V6cxzvnZSryNli-36" value="" style="verticalLabelPosition=bottom;shadow=0;dashed=0;align=center;html=1;verticalAlign=top;shape=mxgraph.electrical.logic_gates.logic_gate;operation=xor;" parent="1" vertex="1">
          <mxGeometry x="300" y="340" width="50" height="30" as="geometry" />
        </mxCell>
        <mxCell id="kTg9N_V6cxzvnZSryNli-108" style="rounded=0;orthogonalLoop=1;jettySize=auto;html=1;exitX=0;exitY=0.75;exitDx=0;exitDy=0;exitPerimeter=0;endArrow=none;endFill=0;" parent="1" source="kTg9N_V6cxzvnZSryNli-37" edge="1">
          <mxGeometry relative="1" as="geometry">
            <mxPoint x="260" y="272.42857142857133" as="targetPoint" />
          </mxGeometry>
        </mxCell>
        <mxCell id="kTg9N_V6cxzvnZSryNli-113" style="edgeStyle=orthogonalEdgeStyle;rounded=0;orthogonalLoop=1;jettySize=auto;html=1;exitX=0;exitY=0.25;exitDx=0;exitDy=0;exitPerimeter=0;endArrow=none;endFill=0;" parent="1" source="kTg9N_V6cxzvnZSryNli-37" edge="1">
          <mxGeometry relative="1" as="geometry">
            <mxPoint x="190" y="257.8333333333335" as="targetPoint" />
          </mxGeometry>
        </mxCell>
        <mxCell id="kTg9N_V6cxzvnZSryNli-37" value="" style="verticalLabelPosition=bottom;shadow=0;dashed=0;align=center;html=1;verticalAlign=top;shape=mxgraph.electrical.logic_gates.logic_gate;operation=xor;" parent="1" vertex="1">
          <mxGeometry x="300" y="250" width="50" height="30" as="geometry" />
        </mxCell>
        <mxCell id="kTg9N_V6cxzvnZSryNli-107" style="edgeStyle=orthogonalEdgeStyle;rounded=0;orthogonalLoop=1;jettySize=auto;html=1;exitX=0;exitY=0.75;exitDx=0;exitDy=0;exitPerimeter=0;entryX=0;entryY=0.25;entryDx=0;entryDy=0;entryPerimeter=0;endArrow=none;endFill=0;" parent="1" source="kTg9N_V6cxzvnZSryNli-38" target="kTg9N_V6cxzvnZSryNli-106" edge="1">
          <mxGeometry relative="1" as="geometry">
            <mxPoint x="260" y="430" as="targetPoint" />
            <Array as="points">
              <mxPoint x="260" y="233" />
              <mxPoint x="260" y="428" />
            </Array>
          </mxGeometry>
        </mxCell>
        <mxCell id="kTg9N_V6cxzvnZSryNli-115" style="edgeStyle=orthogonalEdgeStyle;rounded=0;orthogonalLoop=1;jettySize=auto;html=1;exitX=0;exitY=0.25;exitDx=0;exitDy=0;exitPerimeter=0;endArrow=none;endFill=0;" parent="1" source="kTg9N_V6cxzvnZSryNli-38" edge="1">
          <mxGeometry relative="1" as="geometry">
            <mxPoint x="190" y="217.5" as="targetPoint" />
          </mxGeometry>
        </mxCell>
        <mxCell id="kTg9N_V6cxzvnZSryNli-38" value="" style="verticalLabelPosition=bottom;shadow=0;dashed=0;align=center;html=1;verticalAlign=top;shape=mxgraph.electrical.logic_gates.logic_gate;operation=xor;" parent="1" vertex="1">
          <mxGeometry x="300" y="210" width="50" height="30" as="geometry" />
        </mxCell>
        <mxCell id="kTg9N_V6cxzvnZSryNli-39" value="" style="endArrow=none;dashed=1;html=1;dashPattern=1 3;strokeWidth=2;rounded=0;entryX=0.404;entryY=1.033;entryDx=0;entryDy=0;entryPerimeter=0;exitX=0.404;exitY=0.004;exitDx=0;exitDy=0;exitPerimeter=0;" parent="1" source="kTg9N_V6cxzvnZSryNli-36" target="kTg9N_V6cxzvnZSryNli-37" edge="1">
          <mxGeometry width="50" height="50" relative="1" as="geometry">
            <mxPoint x="320" y="330" as="sourcePoint" />
            <mxPoint x="320" y="290" as="targetPoint" />
          </mxGeometry>
        </mxCell>
        <mxCell id="kTg9N_V6cxzvnZSryNli-40" value="0" style="text;html=1;align=center;verticalAlign=middle;whiteSpace=wrap;rounded=0;" parent="1" vertex="1">
          <mxGeometry x="360" y="390" width="10" height="10" as="geometry" />
        </mxCell>
        <mxCell id="kTg9N_V6cxzvnZSryNli-41" value="1" style="text;html=1;align=center;verticalAlign=middle;whiteSpace=wrap;rounded=0;" parent="1" vertex="1">
          <mxGeometry x="360" y="350" width="10" height="10" as="geometry" />
        </mxCell>
        <mxCell id="kTg9N_V6cxzvnZSryNli-42" value="30" style="text;html=1;align=center;verticalAlign=middle;whiteSpace=wrap;rounded=0;" parent="1" vertex="1">
          <mxGeometry x="360" y="260" width="10" height="10" as="geometry" />
        </mxCell>
        <mxCell id="kTg9N_V6cxzvnZSryNli-43" value="31" style="text;html=1;align=center;verticalAlign=middle;whiteSpace=wrap;rounded=0;" parent="1" vertex="1">
          <mxGeometry x="360" y="220" width="10" height="10" as="geometry" />
        </mxCell>
        <mxCell id="kTg9N_V6cxzvnZSryNli-44" value="0" style="text;html=1;align=center;verticalAlign=middle;whiteSpace=wrap;rounded=0;fontSize=8;" parent="1" vertex="1">
          <mxGeometry x="520" y="435" width="10" height="10" as="geometry" />
        </mxCell>
        <mxCell id="kTg9N_V6cxzvnZSryNli-45" value="1" style="text;html=1;align=center;verticalAlign=middle;whiteSpace=wrap;rounded=0;fontSize=8;" parent="1" vertex="1">
          <mxGeometry x="520" y="425" width="10" height="10" as="geometry" />
        </mxCell>
        <mxCell id="kTg9N_V6cxzvnZSryNli-46" value="2" style="text;html=1;align=center;verticalAlign=middle;whiteSpace=wrap;rounded=0;fontSize=8;" parent="1" vertex="1">
          <mxGeometry x="520" y="415" width="10" height="10" as="geometry" />
        </mxCell>
        <mxCell id="kTg9N_V6cxzvnZSryNli-47" value="3" style="text;html=1;align=center;verticalAlign=middle;whiteSpace=wrap;rounded=0;fontSize=8;" parent="1" vertex="1">
          <mxGeometry x="520" y="405" width="10" height="10" as="geometry" />
        </mxCell>
        <mxCell id="kTg9N_V6cxzvnZSryNli-48" value="4" style="text;html=1;align=center;verticalAlign=middle;whiteSpace=wrap;rounded=0;fontSize=8;" parent="1" vertex="1">
          <mxGeometry x="520" y="395" width="10" height="10" as="geometry" />
        </mxCell>
        <mxCell id="kTg9N_V6cxzvnZSryNli-49" value="5" style="text;html=1;align=center;verticalAlign=middle;whiteSpace=wrap;rounded=0;fontSize=8;" parent="1" vertex="1">
          <mxGeometry x="520" y="385" width="10" height="10" as="geometry" />
        </mxCell>
        <mxCell id="kTg9N_V6cxzvnZSryNli-50" value="6" style="text;html=1;align=center;verticalAlign=middle;whiteSpace=wrap;rounded=0;fontSize=8;" parent="1" vertex="1">
          <mxGeometry x="520" y="375" width="10" height="10" as="geometry" />
        </mxCell>
        <mxCell id="kTg9N_V6cxzvnZSryNli-51" value="7" style="text;html=1;align=center;verticalAlign=middle;whiteSpace=wrap;rounded=0;fontSize=8;" parent="1" vertex="1">
          <mxGeometry x="520" y="365" width="10" height="10" as="geometry" />
        </mxCell>
        <mxCell id="kTg9N_V6cxzvnZSryNli-52" value="8" style="text;html=1;align=center;verticalAlign=middle;whiteSpace=wrap;rounded=0;fontSize=8;" parent="1" vertex="1">
          <mxGeometry x="520" y="355" width="10" height="10" as="geometry" />
        </mxCell>
        <mxCell id="kTg9N_V6cxzvnZSryNli-53" value="9" style="text;html=1;align=center;verticalAlign=middle;whiteSpace=wrap;rounded=0;fontSize=8;" parent="1" vertex="1">
          <mxGeometry x="520" y="345" width="10" height="10" as="geometry" />
        </mxCell>
        <mxCell id="kTg9N_V6cxzvnZSryNli-54" value="10" style="text;html=1;align=center;verticalAlign=middle;whiteSpace=wrap;rounded=0;fontSize=8;" parent="1" vertex="1">
          <mxGeometry x="520" y="335" width="10" height="10" as="geometry" />
        </mxCell>
        <mxCell id="kTg9N_V6cxzvnZSryNli-55" value="11" style="text;html=1;align=center;verticalAlign=middle;whiteSpace=wrap;rounded=0;fontSize=8;" parent="1" vertex="1">
          <mxGeometry x="520" y="325" width="10" height="10" as="geometry" />
        </mxCell>
        <mxCell id="kTg9N_V6cxzvnZSryNli-56" value="12" style="text;html=1;align=center;verticalAlign=middle;whiteSpace=wrap;rounded=0;fontSize=8;" parent="1" vertex="1">
          <mxGeometry x="520" y="315" width="10" height="10" as="geometry" />
        </mxCell>
        <mxCell id="kTg9N_V6cxzvnZSryNli-57" value="13" style="text;html=1;align=center;verticalAlign=middle;whiteSpace=wrap;rounded=0;fontSize=8;" parent="1" vertex="1">
          <mxGeometry x="520" y="305" width="10" height="10" as="geometry" />
        </mxCell>
        <mxCell id="kTg9N_V6cxzvnZSryNli-58" value="14" style="text;html=1;align=center;verticalAlign=middle;whiteSpace=wrap;rounded=0;fontSize=8;" parent="1" vertex="1">
          <mxGeometry x="520" y="295" width="10" height="10" as="geometry" />
        </mxCell>
        <mxCell id="kTg9N_V6cxzvnZSryNli-59" value="15" style="text;html=1;align=center;verticalAlign=middle;whiteSpace=wrap;rounded=0;fontSize=8;" parent="1" vertex="1">
          <mxGeometry x="520" y="285" width="10" height="10" as="geometry" />
        </mxCell>
        <mxCell id="kTg9N_V6cxzvnZSryNli-60" value="16" style="text;html=1;align=center;verticalAlign=middle;whiteSpace=wrap;rounded=0;fontSize=8;" parent="1" vertex="1">
          <mxGeometry x="520" y="275" width="10" height="10" as="geometry" />
        </mxCell>
        <mxCell id="kTg9N_V6cxzvnZSryNli-61" value="17" style="text;html=1;align=center;verticalAlign=middle;whiteSpace=wrap;rounded=0;fontSize=8;" parent="1" vertex="1">
          <mxGeometry x="520" y="265" width="10" height="10" as="geometry" />
        </mxCell>
        <mxCell id="kTg9N_V6cxzvnZSryNli-62" value="18" style="text;html=1;align=center;verticalAlign=middle;whiteSpace=wrap;rounded=0;fontSize=8;" parent="1" vertex="1">
          <mxGeometry x="520" y="255" width="10" height="10" as="geometry" />
        </mxCell>
        <mxCell id="kTg9N_V6cxzvnZSryNli-63" value="19" style="text;html=1;align=center;verticalAlign=middle;whiteSpace=wrap;rounded=0;fontSize=8;" parent="1" vertex="1">
          <mxGeometry x="520" y="245" width="10" height="10" as="geometry" />
        </mxCell>
        <mxCell id="kTg9N_V6cxzvnZSryNli-64" value="20" style="text;html=1;align=center;verticalAlign=middle;whiteSpace=wrap;rounded=0;fontSize=8;" parent="1" vertex="1">
          <mxGeometry x="520" y="235" width="10" height="10" as="geometry" />
        </mxCell>
        <mxCell id="kTg9N_V6cxzvnZSryNli-65" value="21" style="text;html=1;align=center;verticalAlign=middle;whiteSpace=wrap;rounded=0;fontSize=8;" parent="1" vertex="1">
          <mxGeometry x="520" y="225" width="10" height="10" as="geometry" />
        </mxCell>
        <mxCell id="kTg9N_V6cxzvnZSryNli-66" value="22" style="text;html=1;align=center;verticalAlign=middle;whiteSpace=wrap;rounded=0;fontSize=8;" parent="1" vertex="1">
          <mxGeometry x="520" y="215" width="10" height="10" as="geometry" />
        </mxCell>
        <mxCell id="kTg9N_V6cxzvnZSryNli-67" value="23" style="text;html=1;align=center;verticalAlign=middle;whiteSpace=wrap;rounded=0;fontSize=8;" parent="1" vertex="1">
          <mxGeometry x="520" y="205" width="10" height="10" as="geometry" />
        </mxCell>
        <mxCell id="kTg9N_V6cxzvnZSryNli-68" value="24" style="text;html=1;align=center;verticalAlign=middle;whiteSpace=wrap;rounded=0;fontSize=8;" parent="1" vertex="1">
          <mxGeometry x="520" y="195" width="10" height="10" as="geometry" />
        </mxCell>
        <mxCell id="kTg9N_V6cxzvnZSryNli-69" value="25" style="text;html=1;align=center;verticalAlign=middle;whiteSpace=wrap;rounded=0;fontSize=8;" parent="1" vertex="1">
          <mxGeometry x="520" y="185" width="10" height="10" as="geometry" />
        </mxCell>
        <mxCell id="kTg9N_V6cxzvnZSryNli-70" value="26" style="text;html=1;align=center;verticalAlign=middle;whiteSpace=wrap;rounded=0;fontSize=8;" parent="1" vertex="1">
          <mxGeometry x="520" y="175" width="10" height="10" as="geometry" />
        </mxCell>
        <mxCell id="kTg9N_V6cxzvnZSryNli-71" value="27" style="text;html=1;align=center;verticalAlign=middle;whiteSpace=wrap;rounded=0;fontSize=8;" parent="1" vertex="1">
          <mxGeometry x="520" y="165" width="10" height="10" as="geometry" />
        </mxCell>
        <mxCell id="kTg9N_V6cxzvnZSryNli-72" value="28" style="text;html=1;align=center;verticalAlign=middle;whiteSpace=wrap;rounded=0;fontSize=8;" parent="1" vertex="1">
          <mxGeometry x="520" y="155" width="10" height="10" as="geometry" />
        </mxCell>
        <mxCell id="kTg9N_V6cxzvnZSryNli-73" value="29" style="text;html=1;align=center;verticalAlign=middle;whiteSpace=wrap;rounded=0;fontSize=8;" parent="1" vertex="1">
          <mxGeometry x="520" y="145" width="10" height="10" as="geometry" />
        </mxCell>
        <mxCell id="kTg9N_V6cxzvnZSryNli-74" value="30" style="text;html=1;align=center;verticalAlign=middle;whiteSpace=wrap;rounded=0;fontSize=8;" parent="1" vertex="1">
          <mxGeometry x="520" y="135" width="10" height="10" as="geometry" />
        </mxCell>
        <mxCell id="kTg9N_V6cxzvnZSryNli-75" value="31" style="text;html=1;align=center;verticalAlign=middle;whiteSpace=wrap;rounded=0;fontSize=8;" parent="1" vertex="1">
          <mxGeometry x="520" y="125" width="10" height="10" as="geometry" />
        </mxCell>
        <mxCell id="kTg9N_V6cxzvnZSryNli-77" value="" style="endArrow=none;html=1;rounded=0;entryX=0.995;entryY=0.05;entryDx=0;entryDy=0;entryPerimeter=0;exitX=0;exitY=0.5;exitDx=0;exitDy=0;" parent="1" source="kTg9N_V6cxzvnZSryNli-148" edge="1">
          <mxGeometry width="50" height="50" relative="1" as="geometry">
            <mxPoint x="690" y="85" as="sourcePoint" />
            <mxPoint x="540.0000000000001" y="84.91999999999994" as="targetPoint" />
          </mxGeometry>
        </mxCell>
        <mxCell id="kTg9N_V6cxzvnZSryNli-78" value="Cout" style="text;html=1;align=center;verticalAlign=middle;whiteSpace=wrap;rounded=0;fontSize=8;" parent="1" vertex="1">
          <mxGeometry x="520" y="80" width="10" height="10" as="geometry" />
        </mxCell>
        <mxCell id="kTg9N_V6cxzvnZSryNli-90" value="" style="endArrow=none;html=1;rounded=0;" parent="1" edge="1">
          <mxGeometry width="50" height="50" relative="1" as="geometry">
            <mxPoint x="350" y="40" as="sourcePoint" />
            <mxPoint x="190" y="40" as="targetPoint" />
          </mxGeometry>
        </mxCell>
        <mxCell id="kTg9N_V6cxzvnZSryNli-91" value="" style="endArrow=none;html=1;rounded=0;" parent="1" edge="1">
          <mxGeometry width="50" height="50" relative="1" as="geometry">
            <mxPoint x="350" y="54.9" as="sourcePoint" />
            <mxPoint x="190" y="55" as="targetPoint" />
          </mxGeometry>
        </mxCell>
        <mxCell id="kTg9N_V6cxzvnZSryNli-92" value="" style="endArrow=none;html=1;rounded=0;" parent="1" edge="1">
          <mxGeometry width="50" height="50" relative="1" as="geometry">
            <mxPoint x="350" y="124.9" as="sourcePoint" />
            <mxPoint x="190" y="125" as="targetPoint" />
          </mxGeometry>
        </mxCell>
        <mxCell id="kTg9N_V6cxzvnZSryNli-93" value="" style="endArrow=none;html=1;rounded=0;" parent="1" edge="1">
          <mxGeometry width="50" height="50" relative="1" as="geometry">
            <mxPoint x="350" y="144.9" as="sourcePoint" />
            <mxPoint x="319" y="145" as="targetPoint" />
          </mxGeometry>
        </mxCell>
        <mxCell id="kTg9N_V6cxzvnZSryNli-94" value="" style="endArrow=none;html=1;rounded=0;" parent="1" edge="1">
          <mxGeometry width="50" height="50" relative="1" as="geometry">
            <mxPoint x="350" y="164.9" as="sourcePoint" />
            <mxPoint x="190" y="165" as="targetPoint" />
          </mxGeometry>
        </mxCell>
        <mxCell id="kTg9N_V6cxzvnZSryNli-95" value="" style="endArrow=none;html=1;rounded=0;" parent="1" edge="1">
          <mxGeometry width="50" height="50" relative="1" as="geometry">
            <mxPoint x="350" y="74.9" as="sourcePoint" />
            <mxPoint x="190" y="75" as="targetPoint" />
          </mxGeometry>
        </mxCell>
        <mxCell id="kTg9N_V6cxzvnZSryNli-96" value="" style="endArrow=none;dashed=1;html=1;dashPattern=1 3;strokeWidth=2;rounded=0;" parent="1" edge="1">
          <mxGeometry width="50" height="50" relative="1" as="geometry">
            <mxPoint x="330" y="120" as="sourcePoint" />
            <mxPoint x="330" y="80" as="targetPoint" />
          </mxGeometry>
        </mxCell>
        <mxCell id="kTg9N_V6cxzvnZSryNli-97" value="0" style="text;html=1;align=center;verticalAlign=middle;whiteSpace=wrap;rounded=0;" parent="1" vertex="1">
          <mxGeometry x="360" y="160" width="10" height="10" as="geometry" />
        </mxCell>
        <mxCell id="kTg9N_V6cxzvnZSryNli-98" value="1" style="text;html=1;align=center;verticalAlign=middle;whiteSpace=wrap;rounded=0;" parent="1" vertex="1">
          <mxGeometry x="360" y="140" width="10" height="10" as="geometry" />
        </mxCell>
        <mxCell id="kTg9N_V6cxzvnZSryNli-99" value="2" style="text;html=1;align=center;verticalAlign=middle;whiteSpace=wrap;rounded=0;" parent="1" vertex="1">
          <mxGeometry x="360" y="120" width="10" height="10" as="geometry" />
        </mxCell>
        <mxCell id="kTg9N_V6cxzvnZSryNli-100" value="31" style="text;html=1;align=center;verticalAlign=middle;whiteSpace=wrap;rounded=0;" parent="1" vertex="1">
          <mxGeometry x="360" y="30" width="10" height="10" as="geometry" />
        </mxCell>
        <mxCell id="kTg9N_V6cxzvnZSryNli-102" value="30" style="text;html=1;align=center;verticalAlign=middle;whiteSpace=wrap;rounded=0;" parent="1" vertex="1">
          <mxGeometry x="360" y="50" width="10" height="10" as="geometry" />
        </mxCell>
        <mxCell id="kTg9N_V6cxzvnZSryNli-103" value="29" style="text;html=1;align=center;verticalAlign=middle;whiteSpace=wrap;rounded=0;" parent="1" vertex="1">
          <mxGeometry x="360" y="70" width="10" height="10" as="geometry" />
        </mxCell>
        <mxCell id="kTg9N_V6cxzvnZSryNli-121" style="edgeStyle=orthogonalEdgeStyle;rounded=0;orthogonalLoop=1;jettySize=auto;html=1;exitX=0;exitY=0.75;exitDx=0;exitDy=0;exitPerimeter=0;endArrow=none;endFill=0;entryX=0.5;entryY=1;entryDx=0;entryDy=0;" parent="1" source="kTg9N_V6cxzvnZSryNli-106" target="kTg9N_V6cxzvnZSryNli-84" edge="1">
          <mxGeometry relative="1" as="geometry">
            <mxPoint x="150" y="442.62025316455697" as="targetPoint" />
          </mxGeometry>
        </mxCell>
        <mxCell id="kTg9N_V6cxzvnZSryNli-106" value="" style="verticalLabelPosition=bottom;shadow=0;dashed=0;align=center;html=1;verticalAlign=top;shape=mxgraph.electrical.logic_gates.logic_gate;operation=or;" parent="1" vertex="1">
          <mxGeometry x="300" y="420" width="50" height="30" as="geometry" />
        </mxCell>
        <mxCell id="kTg9N_V6cxzvnZSryNli-116" value="" style="endArrow=none;html=1;rounded=0;shape=link;" parent="1" edge="1">
          <mxGeometry width="50" height="50" relative="1" as="geometry">
            <mxPoint x="190" y="390" as="sourcePoint" />
            <mxPoint x="190" y="220" as="targetPoint" />
          </mxGeometry>
        </mxCell>
        <mxCell id="kTg9N_V6cxzvnZSryNli-117" value="" style="endArrow=none;html=1;rounded=0;" parent="1" edge="1">
          <mxGeometry width="50" height="50" relative="1" as="geometry">
            <mxPoint x="80" y="425" as="sourcePoint" />
            <mxPoint x="260" y="424.86" as="targetPoint" />
          </mxGeometry>
        </mxCell>
        <mxCell id="kTg9N_V6cxzvnZSryNli-119" value="" style="endArrow=none;html=1;rounded=0;" parent="1" edge="1">
          <mxGeometry width="50" height="50" relative="1" as="geometry">
            <mxPoint x="350" y="144.9" as="sourcePoint" />
            <mxPoint x="190" y="145" as="targetPoint" />
          </mxGeometry>
        </mxCell>
        <mxCell id="kTg9N_V6cxzvnZSryNli-120" value="" style="endArrow=none;html=1;rounded=0;shape=link;" parent="1" edge="1">
          <mxGeometry width="50" height="50" relative="1" as="geometry">
            <mxPoint x="190" y="170" as="sourcePoint" />
            <mxPoint x="190" y="40" as="targetPoint" />
          </mxGeometry>
        </mxCell>
        <mxCell id="kTg9N_V6cxzvnZSryNli-122" value="Cin" style="text;html=1;align=center;verticalAlign=middle;whiteSpace=wrap;rounded=0;" parent="1" vertex="1">
          <mxGeometry x="-50" y="427.5" width="60" height="30" as="geometry" />
        </mxCell>
        <mxCell id="kTg9N_V6cxzvnZSryNli-129" style="edgeStyle=orthogonalEdgeStyle;rounded=0;orthogonalLoop=1;jettySize=auto;html=1;exitX=0.5;exitY=1;exitDx=0;exitDy=0;endArrow=none;endFill=0;entryX=-0.001;entryY=0.767;entryDx=0;entryDy=0;entryPerimeter=0;" parent="1" source="kTg9N_V6cxzvnZSryNli-127" target="kTg9N_V6cxzvnZSryNli-79" edge="1">
          <mxGeometry relative="1" as="geometry">
            <mxPoint x="80" y="430" as="targetPoint" />
            <Array as="points">
              <mxPoint x="64" y="383" />
              <mxPoint x="64" y="425" />
              <mxPoint x="110" y="425" />
            </Array>
          </mxGeometry>
        </mxCell>
        <mxCell id="kTg9N_V6cxzvnZSryNli-127" value="" style="shape=offPageConnector;whiteSpace=wrap;html=1;rotation=-90;size=0.2692307692307692;" parent="1" vertex="1">
          <mxGeometry x="-30" y="350" width="30" height="65" as="geometry" />
        </mxCell>
        <mxCell id="kTg9N_V6cxzvnZSryNli-128" value="D" style="text;html=1;align=center;verticalAlign=middle;whiteSpace=wrap;rounded=0;" parent="1" vertex="1">
          <mxGeometry x="-50" y="367.5" width="60" height="30" as="geometry" />
        </mxCell>
        <mxCell id="kTg9N_V6cxzvnZSryNli-130" value="" style="endArrow=none;html=1;rounded=0;shape=link;" parent="1" edge="1">
          <mxGeometry width="50" height="50" relative="1" as="geometry">
            <mxPoint x="-10" y="220" as="sourcePoint" />
            <mxPoint x="190" y="220" as="targetPoint" />
          </mxGeometry>
        </mxCell>
        <mxCell id="kTg9N_V6cxzvnZSryNli-133" value="" style="shape=offPageConnector;whiteSpace=wrap;html=1;rotation=-90;size=0.3333333333333333;" parent="1" vertex="1">
          <mxGeometry x="-60" y="185" width="30" height="70" as="geometry" />
        </mxCell>
        <mxCell id="kTg9N_V6cxzvnZSryNli-135" value="B" style="text;html=1;align=center;verticalAlign=middle;whiteSpace=wrap;rounded=0;" parent="1" vertex="1">
          <mxGeometry x="-80" y="205" width="60" height="30" as="geometry" />
        </mxCell>
        <mxCell id="kTg9N_V6cxzvnZSryNli-136" value="" style="endArrow=none;html=1;rounded=0;shape=link;" parent="1" edge="1">
          <mxGeometry width="50" height="50" relative="1" as="geometry">
            <mxPoint x="-10" y="164.63" as="sourcePoint" />
            <mxPoint x="190" y="164.63" as="targetPoint" />
          </mxGeometry>
        </mxCell>
        <mxCell id="kTg9N_V6cxzvnZSryNli-137" value="" style="shape=offPageConnector;whiteSpace=wrap;html=1;rotation=-90;size=0.3333333333333333;" parent="1" vertex="1">
          <mxGeometry x="-60" y="130" width="30" height="70" as="geometry" />
        </mxCell>
        <mxCell id="kTg9N_V6cxzvnZSryNli-138" value="A" style="text;html=1;align=center;verticalAlign=middle;whiteSpace=wrap;rounded=0;" parent="1" vertex="1">
          <mxGeometry x="-80" y="150" width="60" height="30" as="geometry" />
        </mxCell>
        <mxCell id="kTg9N_V6cxzvnZSryNli-139" value="" style="endArrow=none;html=1;rounded=0;" parent="1" edge="1">
          <mxGeometry width="50" height="50" relative="1" as="geometry">
            <mxPoint x="50" y="235" as="sourcePoint" />
            <mxPoint x="80" y="205" as="targetPoint" />
            <Array as="points">
              <mxPoint x="70" y="215" />
            </Array>
          </mxGeometry>
        </mxCell>
        <mxCell id="kTg9N_V6cxzvnZSryNli-140" value="" style="endArrow=none;html=1;rounded=0;" parent="1" edge="1">
          <mxGeometry width="50" height="50" relative="1" as="geometry">
            <mxPoint x="50" y="180" as="sourcePoint" />
            <mxPoint x="80" y="150" as="targetPoint" />
            <Array as="points">
              <mxPoint x="70" y="160" />
            </Array>
          </mxGeometry>
        </mxCell>
        <mxCell id="kTg9N_V6cxzvnZSryNli-141" value="" style="endArrow=none;html=1;rounded=0;shape=link;" parent="1" edge="1">
          <mxGeometry width="50" height="50" relative="1" as="geometry">
            <mxPoint x="570" y="445" as="sourcePoint" />
            <mxPoint x="570" y="125" as="targetPoint" />
          </mxGeometry>
        </mxCell>
        <mxCell id="kTg9N_V6cxzvnZSryNli-142" value="" style="endArrow=none;html=1;rounded=0;shape=link;entryX=0.013;entryY=0.665;entryDx=0;entryDy=0;entryPerimeter=0;" parent="1" target="kTg9N_V6cxzvnZSryNli-146" edge="1">
          <mxGeometry width="50" height="50" relative="1" as="geometry">
            <mxPoint x="570" y="125" as="sourcePoint" />
            <mxPoint x="900" y="125" as="targetPoint" />
          </mxGeometry>
        </mxCell>
        <mxCell id="kTg9N_V6cxzvnZSryNli-145" value="" style="shape=offPageConnector;whiteSpace=wrap;html=1;rotation=-90;size=0.3333333333333333;" parent="1" vertex="1">
          <mxGeometry x="927" y="85" width="30" height="70" as="geometry" />
        </mxCell>
        <mxCell id="kTg9N_V6cxzvnZSryNli-146" value="S" style="text;html=1;align=center;verticalAlign=middle;whiteSpace=wrap;rounded=0;" parent="1" vertex="1">
          <mxGeometry x="907" y="105" width="60" height="30" as="geometry" />
        </mxCell>
        <mxCell id="kTg9N_V6cxzvnZSryNli-147" value="" style="shape=offPageConnector;whiteSpace=wrap;html=1;rotation=-90;size=0.3333333333333333;" parent="1" vertex="1">
          <mxGeometry x="927" y="50" width="30" height="70" as="geometry" />
        </mxCell>
        <mxCell id="kTg9N_V6cxzvnZSryNli-148" value="Cout" style="text;html=1;align=center;verticalAlign=middle;whiteSpace=wrap;rounded=0;" parent="1" vertex="1">
          <mxGeometry x="907" y="70" width="60" height="30" as="geometry" />
        </mxCell>
        <mxCell id="kTg9N_V6cxzvnZSryNli-149" value="" style="endArrow=none;html=1;rounded=0;" parent="1" edge="1">
          <mxGeometry width="50" height="50" relative="1" as="geometry">
            <mxPoint x="850" y="135" as="sourcePoint" />
            <mxPoint x="870" y="115" as="targetPoint" />
          </mxGeometry>
        </mxCell>
        <mxCell id="kTg9N_V6cxzvnZSryNli-151" value="32" style="text;html=1;align=center;verticalAlign=middle;whiteSpace=wrap;rounded=0;" parent="1" vertex="1">
          <mxGeometry x="850" y="105" width="10" height="10" as="geometry" />
        </mxCell>
        <mxCell id="kTg9N_V6cxzvnZSryNli-152" value="32" style="text;html=1;align=center;verticalAlign=middle;whiteSpace=wrap;rounded=0;" parent="1" vertex="1">
          <mxGeometry x="60" y="140" width="10" height="10" as="geometry" />
        </mxCell>
        <mxCell id="kTg9N_V6cxzvnZSryNli-153" value="32" style="text;html=1;align=center;verticalAlign=middle;whiteSpace=wrap;rounded=0;" parent="1" vertex="1">
          <mxGeometry x="60" y="200" width="10" height="10" as="geometry" />
        </mxCell>
        <mxCell id="1VHznkE7vu-xCrnk0oUF-13" style="edgeStyle=orthogonalEdgeStyle;rounded=0;orthogonalLoop=1;jettySize=auto;html=1;exitX=1;exitY=0.5;exitDx=0;exitDy=0;exitPerimeter=0;entryX=0;entryY=0.5;entryDx=0;entryDy=0;endArrow=none;endFill=0;" parent="1" source="1VHznkE7vu-xCrnk0oUF-1" target="1VHznkE7vu-xCrnk0oUF-12" edge="1">
          <mxGeometry relative="1" as="geometry" />
        </mxCell>
        <mxCell id="1VHznkE7vu-xCrnk0oUF-1" value="" style="verticalLabelPosition=bottom;shadow=0;dashed=0;align=center;html=1;verticalAlign=top;shape=mxgraph.electrical.logic_gates.logic_gate;operation=xor;" parent="1" vertex="1">
          <mxGeometry x="650" y="40" width="50" height="30" as="geometry" />
        </mxCell>
        <mxCell id="1VHznkE7vu-xCrnk0oUF-4" value="" style="endArrow=oval;html=1;rounded=0;exitX=0;exitY=0.75;exitDx=0;exitDy=0;exitPerimeter=0;endFill=1;" parent="1" source="1VHznkE7vu-xCrnk0oUF-1" edge="1">
          <mxGeometry width="50" height="50" relative="1" as="geometry">
            <mxPoint x="590" y="180" as="sourcePoint" />
            <mxPoint x="650" y="90" as="targetPoint" />
          </mxGeometry>
        </mxCell>
        <mxCell id="1VHznkE7vu-xCrnk0oUF-5" value="" style="endArrow=none;html=1;rounded=0;exitX=0;exitY=0.75;exitDx=0;exitDy=0;exitPerimeter=0;" parent="1" source="1VHznkE7vu-xCrnk0oUF-1" edge="1">
          <mxGeometry width="50" height="50" relative="1" as="geometry">
            <mxPoint x="650" y="63" as="sourcePoint" />
            <mxPoint x="650" y="80" as="targetPoint" />
          </mxGeometry>
        </mxCell>
        <mxCell id="1VHznkE7vu-xCrnk0oUF-7" style="edgeStyle=orthogonalEdgeStyle;rounded=0;orthogonalLoop=1;jettySize=auto;html=1;exitX=0;exitY=0.25;exitDx=0;exitDy=0;exitPerimeter=0;entryX=0.992;entryY=0.082;entryDx=0;entryDy=0;entryPerimeter=0;endArrow=none;endFill=0;" parent="1" source="1VHznkE7vu-xCrnk0oUF-1" target="kTg9N_V6cxzvnZSryNli-1" edge="1">
          <mxGeometry relative="1" as="geometry" />
        </mxCell>
        <mxCell id="1VHznkE7vu-xCrnk0oUF-9" value="CinMSB" style="text;html=1;align=center;verticalAlign=middle;whiteSpace=wrap;rounded=0;fontSize=8;" parent="1" vertex="1">
          <mxGeometry x="500" y="40" width="40" height="10" as="geometry" />
        </mxCell>
        <mxCell id="1VHznkE7vu-xCrnk0oUF-11" value="" style="shape=offPageConnector;whiteSpace=wrap;html=1;rotation=-90;size=0.3333333333333333;" parent="1" vertex="1">
          <mxGeometry x="927" y="10" width="30" height="70" as="geometry" />
        </mxCell>
        <mxCell id="1VHznkE7vu-xCrnk0oUF-12" value="Overflow" style="text;html=1;align=center;verticalAlign=middle;whiteSpace=wrap;rounded=0;" parent="1" vertex="1">
          <mxGeometry x="907" y="30" width="60" height="30" as="geometry" />
        </mxCell>
        <mxCell id="ou8dC7RHno5nB0uLgIQY-1" value="" style="shape=offPageConnector;whiteSpace=wrap;html=1;rotation=-90;size=0.3333333333333333;" vertex="1" parent="1">
          <mxGeometry x="940" y="475" width="30" height="70" as="geometry" />
        </mxCell>
        <mxCell id="ou8dC7RHno5nB0uLgIQY-2" value="So" style="text;html=1;align=center;verticalAlign=middle;whiteSpace=wrap;rounded=0;" vertex="1" parent="1">
          <mxGeometry x="920" y="490" width="60" height="30" as="geometry" />
        </mxCell>
        <mxCell id="ou8dC7RHno5nB0uLgIQY-4" style="edgeStyle=orthogonalEdgeStyle;rounded=0;orthogonalLoop=1;jettySize=auto;html=1;entryX=0;entryY=0.5;entryDx=0;entryDy=0;endArrow=none;endFill=0;" edge="1" parent="1" source="ou8dC7RHno5nB0uLgIQY-3" target="ou8dC7RHno5nB0uLgIQY-2">
          <mxGeometry relative="1" as="geometry">
            <Array as="points">
              <mxPoint x="920" y="510" />
            </Array>
          </mxGeometry>
        </mxCell>
        <mxCell id="ou8dC7RHno5nB0uLgIQY-16" style="edgeStyle=orthogonalEdgeStyle;rounded=0;orthogonalLoop=1;jettySize=auto;html=1;exitX=0;exitY=0.25;exitDx=0;exitDy=0;exitPerimeter=0;endArrow=oval;endFill=1;" edge="1" parent="1" source="ou8dC7RHno5nB0uLgIQY-3">
          <mxGeometry relative="1" as="geometry">
            <mxPoint x="190" y="420" as="targetPoint" />
          </mxGeometry>
        </mxCell>
        <mxCell id="ou8dC7RHno5nB0uLgIQY-3" value="" style="verticalLabelPosition=bottom;shadow=0;dashed=0;align=center;html=1;verticalAlign=top;shape=mxgraph.electrical.logic_gates.logic_gate;operation=or;" vertex="1" parent="1">
          <mxGeometry x="210" y="485" width="80" height="50" as="geometry" />
        </mxCell>
        <mxCell id="ou8dC7RHno5nB0uLgIQY-10" value="" style="endArrow=none;html=1;rounded=0;entryX=0;entryY=0.75;entryDx=0;entryDy=0;entryPerimeter=0;exitX=0.5;exitY=1;exitDx=0;exitDy=0;" edge="1" parent="1" source="ou8dC7RHno5nB0uLgIQY-12" target="ou8dC7RHno5nB0uLgIQY-3">
          <mxGeometry width="50" height="50" relative="1" as="geometry">
            <mxPoint x="20" y="520" as="sourcePoint" />
            <mxPoint x="100" y="410" as="targetPoint" />
          </mxGeometry>
        </mxCell>
        <mxCell id="ou8dC7RHno5nB0uLgIQY-12" value="" style="shape=offPageConnector;whiteSpace=wrap;html=1;rotation=-90;size=0.2692307692307692;" vertex="1" parent="1">
          <mxGeometry x="-40" y="490" width="30" height="65" as="geometry" />
        </mxCell>
        <mxCell id="ou8dC7RHno5nB0uLgIQY-13" value="Si" style="text;html=1;align=center;verticalAlign=middle;whiteSpace=wrap;rounded=0;" vertex="1" parent="1">
          <mxGeometry x="-60" y="507.5" width="60" height="30" as="geometry" />
        </mxCell>
      </root>
    </mxGraphModel>
  </diagram>
</mxfile>
